<svg xmlns="http://www.w3.org/2000/svg" viewBox="0 0 1920 651">
  <defs>
    <pattern id="gridPattern" patternUnits="userSpaceOnUse" width="40" height="40">
      <path d="M 40 0 L 0 0 0 40" fill="none" stroke="#e0e0e0" stroke-width="0.5"/>
    </pattern>
  </defs>

  <!-- Background -->
  <rect width="100%" height="100%" fill="#f8f9fa" />
  <rect width="100%" height="100%" fill="url(#gridPattern)" />

  <!-- Precise Building Block Structures -->
  
  <!-- Left Structure (Spaceship-like) -->
  <g transform="translate(589, 325)">
    <rect x="-60" y="-40" width="40" height="20" fill="#a29bfe" stroke="#333" stroke-width="0.5" />
    <rect x="-20" y="-40" width="40" height="20" fill="#4ecdc4" stroke="#333" stroke-width="0.5" />
    <rect x="20" y="-40" width="40" height="20" fill="#a29bfe" stroke="#333" stroke-width="0.5" />
    
    <rect x="-80" y="-20" width="40" height="20" fill="#45b7d1" stroke="#333" stroke-width="0.5" />
    <rect x="-40" y="-20" width="40" height="20" fill="#ff6b6b" stroke="#333" stroke-width="0.5" />
    <rect x="0" y="-20" width="40" height="20" fill="#f7d794" stroke="#333" stroke-width="0.5" />
    <rect x="40" y="-20" width="40" height="20" fill="#45b7d1" stroke="#333" stroke-width="0.5" />
    
    <rect x="-60" y="0" width="40" height="20" fill="#4ecdc4" stroke="#333" stroke-width="0.5" />
    <rect x="-20" y="0" width="40" height="20" fill="#a29bfe" stroke="#333" stroke-width="0.5" />
    <rect x="20" y="0" width="40" height="20" fill="#4ecdc4" stroke="#333" stroke-width="0.5" />
    
    <rect x="-40" y="20" width="40" height="20" fill="#f7d794" stroke="#333" stroke-width="0.5" />
    <rect x="0" y="20" width="40" height="20" fill="#ff6b6b" stroke="#333" stroke-width="0.5" />
  </g>



<!-- Gun Buildblock -->
<g transform="translate(110, 70)">
  <!-- Gun Body -->
  <rect x="0" y="0" width="120" height="20" fill="#4ecdc4" stroke="#333" stroke-width="0.5" />
  <rect x="20" y="20" width="100" height="20" fill="#45b7d1" stroke="#333" stroke-width="0.5" />
  <rect x="40" y="40" width="80" height="20" fill="#4ecdc4" stroke="#333" stroke-width="0.5" />
  
  <!-- Gun Handle -->
  <rect x="0" y="20" width="20" height="60" fill="#ff6b6b" stroke="#333" stroke-width="0.5" />
  
  <!-- Gun Barrel -->
  <rect x="120" y="0" width="40" height="20" fill="#a29bfe" stroke="#333" stroke-width="0.5" />
  
  <!-- Trigger -->
  <rect x="30" y="60" width="20" height="10" fill="#f7d794" stroke="#333" stroke-width="0.5" />
  
  <!-- Sight -->
  <rect x="100" y="-10" width="10" height="10" fill="#2d3436" stroke="#333" stroke-width="0.5" />
</g>

<!-- AK47-like Block Gun -->
<g transform="translate(180, 243)">
  <!-- Stock -->
  <rect x="0" y="20" width="60" height="20" fill="#8B4513" stroke="#333" stroke-width="0.5" />
  <rect x="0" y="40" width="40" height="20" fill="#A0522D" stroke="#333" stroke-width="0.5" />
  
  <!-- Body -->
  <rect x="60" y="20" width="100" height="20" fill="#4a4a4a" stroke="#333" stroke-width="0.5" />
  <rect x="80" y="40" width="80" height="20" fill="#5a5a5a" stroke="#333" stroke-width="0.5" />
  
  <!-- Grip -->
  <rect x="120" y="60" width="20" height="40" fill="#8B4513" stroke="#333" stroke-width="0.5" />
  
  <!-- Magazine -->
  <rect x="100" y="60" width="20" height="40" fill="#b8860b" stroke="#333" stroke-width="0.5" />
  <rect x="100" y="100" width="20" height="20" fill="#daa520" stroke="#333" stroke-width="0.5" />
  
  <!-- Barrel -->
  <rect x="160" y="30" width="80" height="10" fill="#5a5a5a" stroke="#333" stroke-width="0.5" />
  
  <!-- Gas Tube -->
  <rect x="160" y="20" width="60" height="10" fill="#4a4a4a" stroke="#333" stroke-width="0.5" />
  
  <!-- Front Sight -->
  <rect x="230" y="20" width="10" height="20" fill="#333" stroke="#333" stroke-width="0.5" />
  
  <!-- Dust Cover -->
  <rect x="60" y="10" width="100" height="10" fill="#5a5a5a" stroke="#333" stroke-width="0.5" />
  
  <!-- Rear Sight -->
  <rect x="150" y="0" width="10" height="20" fill="#333" stroke="#333" stroke-width="0.5" />
  
  <!-- Charging Handle -->
  <rect x="140" y="10" width="20" height="10" fill="#333" stroke="#333" stroke-width="0.5" />
</g>



<!-- Space Shuttle Block Design -->
<g transform="translate(881, 21)">
  <!-- Main Body -->
  <rect x="40" y="0" width="120" height="40" fill="#f0f0f0" stroke="#333" stroke-width="0.5" />
  <rect x="0" y="40" width="200" height="40" fill="#f0f0f0" stroke="#333" stroke-width="0.5" />
  
  <!-- Cockpit -->
  <rect x="140" y="20" width="40" height="20" fill="#87CEEB" stroke="#333" stroke-width="0.5" />
  
  <!-- Wings -->
  <rect x="40" y="80" width="120" height="20" fill="#A9A9A9" stroke="#333" stroke-width="0.5" />
  
  <!-- Tail -->
  <rect x="0" y="0" width="40" height="80" fill="#A9A9A9" stroke="#333" stroke-width="0.5" />
  
  <!-- Thrusters -->
  <rect x="0" y="80" width="20" height="20" fill="#FFA500" stroke="#333" stroke-width="0.5" />
  <rect x="20" y="80" width="20" height="20" fill="#FFA500" stroke="#333" stroke-width="0.5" />
  <rect x="180" y="80" width="20" height="20" fill="#FFA500" stroke="#333" stroke-width="0.5" />
  
  <!-- NASA Logo (simplified) -->
  <rect x="80" y="20" width="40" height="20" fill="#0B3D91" stroke="#333" stroke-width="0.5" />
  <rect x="90" y="25" width="20" height="10" fill="#FF0000" stroke="#333" stroke-width="0.5" />
</g>



<!-- Fighter Jet Block Design -->
<g transform="translate(231, 127)">
  <!-- Main Body -->
  <rect x="40" y="20" width="160" height="20" fill="#2F4F4F" stroke="#333" stroke-width="0.5" />
  <rect x="60" y="40" width="120" height="20" fill="#2F4F4F" stroke="#333" stroke-width="0.5" />
  
  <!-- Cockpit -->
  <rect x="160" y="0" width="40" height="20" fill="#87CEEB" stroke="#333" stroke-width="0.5" />
  
  <!-- Wings -->
  <rect x="80" y="60" width="100" height="20" fill="#4682B4" stroke="#333" stroke-width="0.5" />
  <rect x="100" y="80" width="60" height="20" fill="#4682B4" stroke="#333" stroke-width="0.5" />
  
  <!-- Tail -->
  <rect x="20" y="0" width="40" height="40" fill="#4682B4" stroke="#333" stroke-width="0.5" />
  
  <!-- Nose -->
  <rect x="200" y="20" width="40" height="20" fill="#2F4F4F" stroke="#333" stroke-width="0.5" />
  
  <!-- Engines -->
  <rect x="0" y="40" width="40" height="20" fill="#B22222" stroke="#333" stroke-width="0.5" />
  <rect x="20" y="60" width="20" height="20" fill="#B22222" stroke="#333" stroke-width="0.5" />
</g>

<!-- Pirate Ship Block Design -->
<g transform="translate(1211, 143)">
  <!-- Hull -->
  <rect x="20" y="60" width="200" height="40" fill="#8B4513" stroke="#333" stroke-width="0.5" />
  <rect x="0" y="80" width="240" height="20" fill="#8B4513" stroke="#333" stroke-width="0.5" />
  
  <!-- Sails -->
  <rect x="60" y="0" width="20" height="60" fill="#A0522D" stroke="#333" stroke-width="0.5" />
  <rect x="80" y="20" width="60" height="40" fill="#F0F8FF" stroke="#333" stroke-width="0.5" />
  <rect x="160" y="0" width="20" height="60" fill="#A0522D" stroke="#333" stroke-width="0.5" />
  <rect x="180" y="20" width="60" height="40" fill="#F0F8FF" stroke="#333" stroke-width="0.5" />
  
  <!-- Crow's Nest -->
  <rect x="50" y="-20" width="40" height="20" fill="#A0522D" stroke="#333" stroke-width="0.5" />
  
  <!-- Cannons -->
  <rect x="40" y="70" width="20" height="10" fill="#2F4F4F" stroke="#333" stroke-width="0.5" />
  <rect x="100" y="70" width="20" height="10" fill="#2F4F4F" stroke="#333" stroke-width="0.5" />
  <rect x="160" y="70" width="20" height="10" fill="#2F4F4F" stroke="#333" stroke-width="0.5" />
  
  <!-- Jolly Roger (simplified) -->
  <rect x="140" y="30" width="20" height="20" fill="#000" stroke="#333" stroke-width="0.5" />
</g>

<!-- Airplane Block Design -->
<g transform="translate(1322, 399)">
  <!-- Main Body -->
  <rect x="40" y="20" width="200" height="40" fill="#F0F8FF" stroke="#333" stroke-width="0.5" />
  
  <!-- Nose -->
  <rect x="240" y="30" width="40" height="20" fill="#F0F8FF" stroke="#333" stroke-width="0.5" />
  
  <!-- Tail -->
  <rect x="0" y="0" width="40" height="60" fill="#4682B4" stroke="#333" stroke-width="0.5" />
  
  <!-- Wings -->
  <rect x="100" y="0" width="120" height="20" fill="#4682B4" stroke="#333" stroke-width="0.5" />
  <rect x="120" y="60" width="80" height="20" fill="#4682B4" stroke="#333" stroke-width="0.5" />
  
  <!-- Engines -->
  <rect x="80" y="60" width="40" height="20" fill="#2F4F4F" stroke="#333" stroke-width="0.5" />
  <rect x="200" y="60" width="40" height="20" fill="#2F4F4F" stroke="#333" stroke-width="0.5" />
  
  <!-- Windows -->
  <rect x="60" y="30" width="160" height="10" fill="#87CEEB" stroke="#333" stroke-width="0.5" />
</g>

  <!-- Car -->
  <g transform="translate(1100, 400) scale(0.7)">
    <rect x="0" y="30" width="150" height="50" rx="10" fill="#ff6b6b" />
    <circle cx="30" cy="80" r="20" fill="#2d3436" />
    <circle cx="120" cy="80" r="20" fill="#2d3436" />
  </g>


</svg>