<?xml version="1.0" encoding="utf-8"?>
<!-- Generator: Adobe Illustrator 25.4.1, SVG Export Plug-In . SVG Version: 6.00 Build 0)  -->
<svg version="1.1" id="图层_1" xmlns="http://www.w3.org/2000/svg" xmlns:xlink="http://www.w3.org/1999/xlink" x="0px" y="0px"
	 viewBox="0 0 595.28 841.89" style="enable-background:new 0 0 595.28 841.89;" xml:space="preserve">
<style type="text/css">
	.st0{fill:#E60012;}
	.st1{fill:#FFFFFF;}
	.st2{fill:#EFEA3C;}
</style>
<g>
	<path class="st0" d="M-44.6,51.7h-36.19c-3.12,0-5.67-2.55-5.67-5.67V9.84c0-3.12,2.55-5.67,5.67-5.67h36.19
		c3.12,0,5.67,2.55,5.67,5.67v36.19C-38.93,49.15-41.48,51.7-44.6,51.7"/>
	<g>
		<rect x="-73.98" y="15.98" class="st1" width="9.28" height="21.45"/>
		<path class="st1" d="M-49.09,37.25h-9.74l-4.49-9.17h-0.04v-5.86c0-0.22,0.19-0.39,0.43-0.39h2.45c2.19,0,3.96-1.62,3.96-3.61
			c0-2-1.77-3.61-3.96-3.61h-2.45c-0.24,0-0.43-0.18-0.43-0.39V9.14c0-0.22,0.19-0.39,0.43-0.39h0.86c3.62,0,6.44,0.82,8.44,2.46
			c2.22,1.84,3.34,4.17,3.34,7c0,2.89-1.38,5.31-4.14,7.29L-49.09,37.25z"/>
		<path class="st1" d="M-65.05,10.2h-1.52V9.02c0-0.15-0.16-0.27-0.35-0.27h-2.68h-0.28h-4.1v5.94h4.1h0.28h2.68
			c0.19,0,0.35-0.12,0.35-0.27v-1.18h1.52c0.19,0,0.35-0.12,0.35-0.28v-2.48C-64.71,10.32-64.86,10.2-65.05,10.2"/>
	</g>
	<g>
		<path class="st1" d="M-81.25,39.3h1.8c1.01,0,1.69,0.04,2.06,0.13c0.37,0.09,0.69,0.23,0.95,0.43s0.47,0.46,0.62,0.78
			c0.15,0.32,0.23,0.67,0.23,1.06c0,0.77-0.27,1.38-0.82,1.82c-0.55,0.44-1.32,0.64-2.31,0.61l3.26,4.2h-1.12l-3.25-4.2h-0.52v4.2
			h-0.91V39.3z M-80.34,40.18v3.07h1.56c0.77,0.01,1.34-0.11,1.7-0.36c0.36-0.25,0.55-0.64,0.55-1.19c0-0.53-0.18-0.91-0.54-1.16
			c-0.36-0.24-0.92-0.36-1.67-0.36H-80.34z"/>
		<path class="st1" d="M-69.66,46.2l0.31,0.26c0.07,0.06,0.1,0.17,0.05,0.26c-0.35,0.68-0.8,1.2-1.8,1.55
			c-0.71,0.25-1.83,0.39-2.7,0c-0.87-0.39-1.49-1.02-1.86-1.92c-0.38-0.91-0.4-1.81-0.06-2.7c0.34-0.9,0.95-1.53,1.84-1.9
			c0.9-0.37,1.77-0.39,2.63-0.05c0.86,0.34,1.51,1.02,1.96,2.04l-5.55,2.32c0.37,0.82,0.93,1.35,1.68,1.59
			c0.6,0.19,1.53,0.03,2.07-0.28c0.58-0.33,0.88-0.77,1.08-1.11C-69.91,46.14-69.76,46.12-69.66,46.2z M-70.44,43.44
			c-0.35-0.54-0.82-0.89-1.39-1.04c-0.57-0.15-1.14-0.11-1.71,0.13c-1.16,0.48-1.66,1.43-1.49,2.83L-70.44,43.44z"/>
		<path class="st1" d="M-68.83,45.03c0-0.98,0.34-1.82,1.01-2.51c0.64-0.66,1.52-1.04,2.44-1.05c0.98-0.01,1.81,0.34,2.49,1.04
			c0.67,0.7,1.01,1.53,1.01,2.52c0,0.91-0.34,1.77-0.95,2.44c-0.67,0.73-1.51,1.09-2.52,1.09c-1.01,0-1.86-0.37-2.54-1.11
			C-68.5,46.79-68.83,45.94-68.83,45.03z M-62.74,45.05c0-0.74-0.26-1.38-0.77-1.92s-1.13-0.81-1.83-0.81
			c-0.71,0-1.33,0.27-1.84,0.81c-0.51,0.54-0.77,1.18-0.77,1.92c0,0.75,0.25,1.39,0.74,1.91c0.49,0.52,1.12,0.78,1.86,0.78
			c0.72,0,1.34-0.26,1.84-0.79C-62.99,46.43-62.74,45.79-62.74,45.05z"/>
		<path class="st1" d="M-61.38,48.33v-9.26h0.84v3.72c0.73-0.88,1.62-1.32,2.68-1.32c0.96,0,1.77,0.35,2.43,1.04
			c0.67,0.69,1,1.53,1,2.51c0,0.96-0.34,1.8-1.02,2.49c-0.68,0.7-1.49,1.04-2.44,1.04c-1.06,0-1.94-0.49-2.65-1.46v1.23H-61.38z
			 M-60.59,44.95c0,0.78,0.26,1.44,0.77,1.97c0.49,0.52,1.19,0.81,1.9,0.81c0.73-0.01,1.35-0.28,1.86-0.82
			c0.52-0.55,0.77-1.18,0.77-1.91c0-0.74-0.25-1.38-0.75-1.92c-0.5-0.55-1.13-0.82-1.89-0.82c-0.75,0-1.39,0.26-1.89,0.77
			C-60.34,43.53-60.59,44.18-60.59,44.95z"/>
		<path class="st1" d="M-53.99,41.65h0.88v0.97c0.23-0.39,0.46-0.68,0.69-0.87c0.22-0.18,0.49-0.28,0.8-0.28
			c0.23,0,0.49,0.08,0.77,0.23l-0.45,0.73c-0.13-0.08-0.26-0.11-0.39-0.11c-0.26,0-0.51,0.13-0.74,0.4
			c-0.23,0.27-0.4,0.61-0.51,1.04c-0.11,0.42-0.16,1.19-0.16,2.31v2.26h-0.88V41.65z"/>
		<path class="st1" d="M-50.1,41.65L-50.1,41.65c0.24,0,0.43,0.19,0.43,0.43v6.25h-0.87v-6.25C-50.54,41.85-50.34,41.65-50.1,41.65z
			"/>
		<path class="st1" d="M-46.75,45.54l-1.81,2.61c-0.08,0.11-0.21,0.18-0.34,0.18l0,0c-0.34,0-0.54-0.38-0.34-0.66l1.99-2.87
			l-1.74-2.5c-0.19-0.28,0.01-0.66,0.34-0.66h0.01c0.14,0,0.27,0.07,0.34,0.18l1.56,2.24l1.55-2.24c0.08-0.11,0.21-0.18,0.34-0.18
			h0.01c0.34,0,0.54,0.38,0.34,0.66l-1.73,2.49l2.02,2.88c0.19,0.28,0,0.66-0.34,0.66h-0.02c-0.14,0-0.27-0.07-0.34-0.18
			L-46.75,45.54z"/>
		<polygon class="st2" points="-50.7,40.16 -50.35,40.16 -50.35,39.86 -49.86,39.86 -49.86,40.16 -49.51,40.16 -49.51,40.95 
			-50.7,40.95 		"/>
	</g>
</g>
</svg>
